<svg width="1200" height="760" viewBox="0 0 1200 760" fill="none" xmlns="http://www.w3.org/2000/svg">
  <rect width="1200" height="760" fill="#030712"/>
  <rect x="48" y="48" width="1104" height="664" rx="34" fill="#07111F" stroke="#2563EB" stroke-width="2"/>
  <text x="94" y="124" fill="#38BDF8" font-family="Inter, Arial, sans-serif" font-size="28" font-weight="800">LIVE VEHICLE AUCTION PORTAL</text>
  <text x="94" y="164" fill="#F8FAFC" font-family="Inter, Arial, sans-serif" font-size="54" font-weight="900">CarZone bidding dashboard</text>
  <rect x="94" y="226" width="540" height="332" rx="26" fill="#0F172A" stroke="#38BDF8" stroke-opacity=".42"/>
  <path d="M170 430l56-96h252l76 96v72H170v-72z" fill="#13233B" stroke="#60A5FA" stroke-width="4"/>
  <circle cx="250" cy="508" r="34" fill="#38BDF8" fill-opacity=".22" stroke="#38BDF8" stroke-width="4"/>
  <circle cx="468" cy="508" r="34" fill="#38BDF8" fill-opacity=".22" stroke="#38BDF8" stroke-width="4"/>
  <rect x="696" y="226" width="410" height="332" rx="26" fill="#0F172A" stroke="#38BDF8" stroke-opacity=".42"/>
  <text x="734" y="292" fill="#E5E7EB" font-family="Inter, Arial, sans-serif" font-size="26" font-weight="800">Current bid</text>
  <text x="734" y="354" fill="#38BDF8" font-family="Inter, Arial, sans-serif" font-size="58" font-weight="900">$28,750</text>
  <rect x="734" y="394" width="322" height="18" rx="9" fill="#1E293B"/>
  <rect x="734" y="394" width="238" height="18" rx="9" fill="#38BDF8"/>
  <rect x="734" y="458" width="146" height="54" rx="18" fill="#38BDF8"/>
  <text x="768" y="493" fill="#020617" font-family="Inter, Arial, sans-serif" font-size="18" font-weight="900">PLACE BID</text>
  <rect x="904" y="458" width="152" height="54" rx="18" fill="#111C2F" stroke="#334155"/>
  <text x="944" y="493" fill="#CBD5E1" font-family="Inter, Arial, sans-serif" font-size="18" font-weight="900">WATCH</text>
  <g stroke="#38BDF8" stroke-opacity=".45" stroke-width="3"><path d="M734 618h322"/><path d="M734 650h248"/></g>
</svg>
