<svg xmlns="http://www.w3.org/2000/svg" width="960" height="640" viewBox="0 0 960 640" role="img"><title>Shopify theme — reusable sections and connected content</title><desc>Interface recreation with illustrative content and sample data.</desc><rect width="960" height="640" fill="#f5f6f8"/><g font-family="Arial, Helvetica, sans-serif"><rect x="0" y="0" width="960" height="59" rx="0" fill="#fff" stroke="none"/><text x="24" y="36" font-size="18" fill="#27313b" font-weight="600" >Theme workspace</text><rect x="205" y="17" width="64" height="28" rx="14" fill="#f1efe9" stroke="none"/><text x="217" y="36" font-size="12" fill="#837958" font-weight="600" >Draft</text><text x="622" y="35" font-size="13" fill="#76808b" font-weight="400" >Home page</text><rect x="832" y="10" width="105" height="42" rx="5" fill="#516958" stroke="none"/><text x="884.5" y="37" font-size="14" fill="#fff" font-weight="600" text-anchor="middle">Save</text><rect x="0" y="60" width="237" height="580" rx="0" fill="#fff" stroke="none"/><path d="M237 60L237 640" stroke="#e5e8eb" stroke-width="1" fill="none"/><text x="22" y="99" font-size="11" fill="#76808b" font-weight="600" letter-spacing="1.5">SECTIONS</text><rect x="12" y="119" width="212" height="44" rx="5" fill="#fff" stroke="none"/><text x="24" y="146" font-size="15" fill="#76808b" font-weight="400" >⋮⋮</text><text x="48" y="146" font-size="13" fill="#27313b" font-weight="400" >Header</text><rect x="12" y="172" width="212" height="44" rx="5" fill="#eaf0eb" stroke="none"/><text x="24" y="199" font-size="15" fill="#76808b" font-weight="400" >⋮⋮</text><text x="48" y="199" font-size="13" fill="#42664a" font-weight="400" >Image with text</text><rect x="12" y="225" width="212" height="44" rx="5" fill="#fff" stroke="none"/><text x="24" y="252" font-size="15" fill="#76808b" font-weight="400" >⋮⋮</text><text x="48" y="252" font-size="13" fill="#27313b" font-weight="400" >Featured collection</text><rect x="12" y="278" width="212" height="44" rx="5" fill="#fff" stroke="none"/><text x="24" y="305" font-size="15" fill="#76808b" font-weight="400" >⋮⋮</text><text x="48" y="305" font-size="13" fill="#27313b" font-weight="400" >Product highlights</text><rect x="12" y="331" width="212" height="44" rx="5" fill="#fff" stroke="none"/><text x="24" y="358" font-size="15" fill="#76808b" font-weight="400" >⋮⋮</text><text x="48" y="358" font-size="13" fill="#27313b" font-weight="400" >Frequently asked</text><rect x="12" y="384" width="212" height="44" rx="5" fill="#fff" stroke="none"/><text x="24" y="411" font-size="15" fill="#76808b" font-weight="400" >⋮⋮</text><text x="48" y="411" font-size="13" fill="#27313b" font-weight="400" >Footer</text><text x="24" y="495" font-size="14" fill="#42664a" font-weight="600" >+ Add section</text><path d="M20 520L213 520" stroke="#e5e8eb" stroke-width="1" fill="none"/><text x="24" y="551" font-size="13" fill="#27313b" font-weight="600" >Dynamic source</text><text x="24" y="578" font-size="12" fill="#76808b" font-weight="400" >Product → care instructions</text><text x="24" y="605" font-size="11" fill="#527b5a" font-weight="400" >Connected to a metafield</text><rect x="266" y="87" width="664" height="517" rx="3" fill="#fff" stroke="#e0e2df"/><text x="289" y="122" font-size="17" fill="#454a3f" font-weight="500" font-family="Georgia, serif">FORM &amp; FIELD</text><text x="714" y="122" font-size="12" fill="#76808b" font-weight="400" >Shop    About    Bag</text><path d="M267 139L930 139" stroke="#e5e8eb" stroke-width="1" fill="none"/><rect x="283" y="155" width="629" height="228" rx="0" fill="#e9eadd" stroke="none"/><text x="310" y="208" font-size="34" fill="#4e5849" font-weight="400" font-family="Georgia, serif">Objects for</text><text x="310" y="247" font-size="34" fill="#4e5849" font-weight="400" font-family="Georgia, serif">everyday living.</text><text x="310" y="280" font-size="12" fill="#76808b" font-weight="400" >Considered details. Useful things.</text><rect x="310" y="309" width="166" height="42" rx="5" fill="#586951" stroke="none"/><text x="393" y="336" font-size="14" fill="#fff" font-weight="600" text-anchor="middle">Explore collection</text><g transform="translate(733 189) scale(1.2)"><rect x="30" y="0" width="34" height="28" rx="4" fill="#d1bba5" stroke="none"/><rect x="14" y="25" width="66" height="112" rx="12" fill="#a8ae8d" stroke="none"/><rect x="19" y="68" width="56" height="45" rx="1" fill="#f7f1e8" stroke="none"/><text x="47" y="87" font-size="9" fill="#6e655e" font-weight="600" text-anchor="middle">DAILY</text><text x="47" y="102" font-size="6" fill="#6e655e" font-weight="400" text-anchor="middle">ESSENTIALS</text></g><text x="288" y="420" font-size="21" fill="#454a3f" font-weight="400" font-family="Georgia, serif">Everyday essentials</text><rect x="286" y="441" width="199" height="106" rx="2" fill="#efebe4" stroke="none"/><g transform="translate(349 450) scale(0.63)"><rect x="30" y="0" width="34" height="28" rx="4" fill="#d1bba5" stroke="none"/><rect x="14" y="25" width="66" height="112" rx="12" fill="#b59a80" stroke="none"/><rect x="19" y="68" width="56" height="45" rx="1" fill="#f7f1e8" stroke="none"/><text x="47" y="87" font-size="9" fill="#6e655e" font-weight="600" text-anchor="middle">DAILY</text><text x="47" y="102" font-size="6" fill="#6e655e" font-weight="400" text-anchor="middle">ESSENTIALS</text></g><text x="286" y="573" font-size="12" fill="#27313b" font-weight="400" >The daily edit</text><rect x="497" y="441" width="199" height="106" rx="2" fill="#e5e9e4" stroke="none"/><g transform="translate(560 450) scale(0.63)"><rect x="30" y="0" width="34" height="28" rx="4" fill="#d1bba5" stroke="none"/><rect x="14" y="25" width="66" height="112" rx="12" fill="#879987" stroke="none"/><rect x="19" y="68" width="56" height="45" rx="1" fill="#f7f1e8" stroke="none"/><text x="47" y="87" font-size="9" fill="#6e655e" font-weight="600" text-anchor="middle">DAILY</text><text x="47" y="102" font-size="6" fill="#6e655e" font-weight="400" text-anchor="middle">ESSENTIALS</text></g><text x="497" y="573" font-size="12" fill="#27313b" font-weight="400" >Thoughtful materials</text><rect x="708" y="441" width="199" height="106" rx="2" fill="#eee5df" stroke="none"/><g transform="translate(771 450) scale(0.63)"><rect x="30" y="0" width="34" height="28" rx="4" fill="#d1bba5" stroke="none"/><rect x="14" y="25" width="66" height="112" rx="12" fill="#b18c79" stroke="none"/><rect x="19" y="68" width="56" height="45" rx="1" fill="#f7f1e8" stroke="none"/><text x="47" y="87" font-size="9" fill="#6e655e" font-weight="600" text-anchor="middle">DAILY</text><text x="47" y="102" font-size="6" fill="#6e655e" font-weight="400" text-anchor="middle">ESSENTIALS</text></g><text x="708" y="573" font-size="12" fill="#27313b" font-weight="400" >Made to be used</text></g></svg>
